<?xml version="1.0" encoding="UTF-8"?>
<svg width="200px" height="120px" viewBox="0 0 200 120" version="1.1" xmlns="http://www.w3.org/2000/svg" xmlns:xlink="http://www.w3.org/1999/xlink">
    <!-- Generator: Sketch 48.2 (47327) - http://www.bohemiancoding.com/sketch -->
    <title>like-not-like</title>
    <desc>Created with Sketch.</desc>
    <defs></defs>
    <g id="Page-1" stroke="none" stroke-width="1" fill="none" fill-rule="evenodd">
        <g id="like-not-like">
            <rect id="Rectangle-8" fill="#166D66" x="0" y="0" width="200" height="120" rx="4"></rect>
            <g id="Group-4" transform="translate(19.000000, 21.000000)" fill="#72DCDB">
                <path d="M25.0693043,69.8593747 C19.9185479,70.5015098 14.4310568,71.4617964 8.60683092,72.7402344 C-3.96885268,68.7929688 -1.13340346,37.1181641 6.73378404,35.6967773 C9.06522214,35.9412619 13.3664161,36.1681491 19.637366,36.3774389 C27.3359211,29.1013205 31.8147677,23.3641275 33.0739057,19.1658599 C32.7339433,15.902845 32.3561812,12.3160969 32.0601609,9.22061273 C31.4670761,8.29013914 31.1234325,7.18520071 31.1234325,6 C31.1234325,2.6862915 33.809724,0 37.1234325,0 C38.9652985,0 40.6133244,0.829928387 41.7139518,2.13622681 C45.2841677,3.05232095 48.0364664,8.49003358 48.092473,15.0951236 C48.1708241,15.7524107 48.1098325,16.4196487 47.912562,17.0531109 C44.7843085,27.0984366 48.5132822,31.9596316 59.0995067,31.6367034 C60.9685381,31.5796894 62.4000911,31.7007882 63.3941656,32 L66.6234325,32 C70.2132834,32 73.1234325,34.9101491 73.1234325,38.5 C73.1234325,42.0898509 70.2132834,45 66.6234325,45 L67.6234325,45 C71.2132834,45 74.1234325,47.9101491 74.1234325,51.5 C74.1234325,54.568666 71.9969506,57.1406656 69.1371811,57.8228046 C70.3618056,59.004896 71.1234325,60.6635042 71.1234325,62.5 C71.1234325,65.6158897 68.9309983,68.2197089 66.0046384,68.8529491 C66.7108064,69.8928693 67.1234325,71.1482477 67.1234325,72.5 C67.1234325,76.0898509 64.2132834,79 60.6234325,79 L43.6234325,79 C43.2874627,79 42.9574463,78.9745104 42.6352116,78.9253596 C35.4656936,78.3848319 29.1671271,74.9467119 25.0693087,69.8593802 Z" id="Combined-Shape"></path>
                <path d="M112.069304,69.8593747 C106.918548,70.5015098 101.431057,71.4617964 95.6068309,72.7402344 C83.0311473,68.7929688 85.8665965,37.1181641 93.733784,35.6967773 C96.0652221,35.9412619 100.366416,36.1681491 106.637366,36.3774389 C114.335921,29.1013205 118.814768,23.3641275 120.073906,19.1658599 C119.733943,15.902845 119.356181,12.3160969 119.060161,9.22061273 C118.467076,8.29013914 118.123432,7.18520071 118.123432,6 C118.123432,2.6862915 120.809724,0 124.123432,0 C125.965299,0 127.613324,0.829928387 128.713952,2.13622681 C132.284168,3.05232095 135.036466,8.49003358 135.092473,15.0951236 C135.170824,15.7524107 135.109832,16.4196487 134.912562,17.0531109 C131.784308,27.0984366 135.513282,31.9596316 146.099507,31.6367034 C147.968538,31.5796894 149.400091,31.7007882 150.394166,32 L153.623432,32 C157.213283,32 160.123432,34.9101491 160.123432,38.5 C160.123432,42.0898509 157.213283,45 153.623432,45 L154.623432,45 C158.213283,45 161.123432,47.9101491 161.123432,51.5 C161.123432,54.568666 158.996951,57.1406656 156.137181,57.8228046 C157.361806,59.004896 158.123432,60.6635042 158.123432,62.5 C158.123432,65.6158897 155.930998,68.2197089 153.004638,68.8529491 C153.710806,69.8928693 154.123432,71.1482477 154.123432,72.5 C154.123432,76.0898509 151.213283,79 147.623432,79 L130.623432,79 C130.287463,79 129.957446,78.9745104 129.635212,78.9253596 C122.465694,78.3848319 116.167127,74.9467119 112.069309,69.8593802 Z" id="Combined-Shape-Copy" transform="translate(124.061716, 39.500000) scale(-1, 1) rotate(180.000000) translate(-124.061716, -39.500000) "></path>
            </g>
        </g>
    </g>
</svg>